# xmcd CD database file
#
# Track frame offsets:
#	150
#	33277
#	60267
#	82137
#	115974
#	151429
#	170242
#	196958
#
# Disc length: 3024 seconds
#
# Revision: 0
# Processed by: cddbd v1.5.2PL0 Copyright (c) Steve Scherf et al.
# Submitted via: CDex 1.51
#
DISCID=660bce08
DTITLE=Laurie Altman - Ed Schuller - accordingly
DYEAR=1900
DGENRE=Jazz
TTITLE0=JB accordingly
TTITLE1=It never entered my mind
TTITLE2=My father's song
TTITLE3=Maybe tomorrow
TTITLE4=Trivial pursuit
TTITLE5=Afternoon in Paris
TTITLE6=Come to me, bend to me
TTITLE7=LA accordingly
EXTD=
EXTT0=
EXTT1=
EXTT2=
EXTT3=
EXTT4=
EXTT5=
EXTT6=
EXTT7=
PLAYORDER=
